# xmcd
#
# Track frame offsets:
#	187
#	26915
#	46617
#	63267
#	78000
#	90582
#	104435
#	126567
#	147765
#	165545
#	183267
#
# Disc length: 2674 seconds
#
# Revision: 1
# Processed by: cddbd v1.5.1PL0 Copyright (c) Steve Scherf et al.
# Submitted via: CDex 1.50Beta5
#
DISCID=870a700b
DTITLE=財津和夫 - ONE WORD
DYEAR=1998
DGENRE=
TTITLE0=ONE WORD
TTITLE1=闘う男
TTITLE2=ぼくは君のゴミじゃない
TTITLE3=君もいつかはシルバーシート
TTITLE4=My Dear
TTITLE5=ふたりだから
TTITLE6=Straight Way
TTITLE7=ちょうど
TTITLE8=夜明けの街角
TTITLE9=ユア・ベスト・フレンド
TTITLE10=「ストーブ」
EXTD=
EXTT0=
EXTT1=
EXTT2=
EXTT3=
EXTT4=
EXTT5=
EXTT6=
EXTT7=
EXTT8=
EXTT9=
EXTT10=
PLAYORDER=
